<svg width="62" height="59" viewBox="0 0 62 59" fill="none" xmlns="http://www.w3.org/2000/svg">
<path d="M38.278 29.4958L60.4732 8.42068C61.4451 7.49561 61.9912 6.24096 61.9912 4.93272C61.9912 3.62448 61.4451 2.36982 60.4732 1.44476C59.5012 0.519696 58.183 0 56.8084 0C55.4338 0 54.1156 0.519696 53.1436 1.44476L31 22.569L8.8564 1.44476C7.88444 0.519696 6.56617 -9.74713e-09 5.19161 0C3.81704 9.74714e-09 2.49878 0.519696 1.52682 1.44476C0.554852 2.36982 0.00880893 3.62448 0.00880892 4.93272C0.00880891 6.24096 0.554852 7.49561 1.52682 8.42068L23.722 29.4958L1.52682 50.5709C1.04302 51.0276 0.659022 51.571 0.39697 52.1696C0.134918 52.7683 0 53.4104 0 54.0589C0 54.7074 0.134918 55.3495 0.39697 55.9482C0.659022 56.5468 1.04302 57.0902 1.52682 57.5469C2.00666 58.0073 2.57755 58.3728 3.20655 58.6222C3.83554 58.8716 4.5102 59 5.19161 59C5.87301 59 6.54767 58.8716 7.17667 58.6222C7.80567 58.3728 8.37655 58.0073 8.8564 57.5469L31 36.4226L53.1436 57.5469C53.6234 58.0073 54.1943 58.3728 54.8233 58.6222C55.4523 58.8716 56.127 59 56.8084 59C57.4898 59 58.1645 58.8716 58.7935 58.6222C59.4225 58.3728 59.9933 58.0073 60.4732 57.5469C60.957 57.0902 61.341 56.5468 61.603 55.9482C61.8651 55.3495 62 54.7074 62 54.0589C62 53.4104 61.8651 52.7683 61.603 52.1696C61.341 51.571 60.957 51.0276 60.4732 50.5709L38.278 29.4958Z" fill="#D5BBDA"/>
</svg>
