<svg width="100" height="94" viewBox="0 0 100 94" fill="none" xmlns="http://www.w3.org/2000/svg">
<g clip-path="url(#clip0_126_55)">
<path d="M100 47C100 37.7043 97.0676 28.6173 91.5735 20.8882C86.0794 13.1591 78.2705 7.135 69.1342 3.57768C59.9979 0.0203642 49.9445 -0.910392 40.2455 0.903113C30.5464 2.71662 21.6373 7.19293 14.6447 13.766C7.65203 20.3391 2.89 28.7137 0.960739 37.8308C-0.968521 46.9479 0.0216446 56.398 3.80602 64.9861C7.59041 73.5743 13.999 80.9147 22.2215 86.0791C30.4439 91.2435 40.1109 94 50 94C63.2564 93.9864 75.9657 89.0303 85.3394 80.219C94.713 71.4077 99.9855 59.461 100 47H100ZM4.6875 47C4.6875 38.5758 7.34503 30.3407 12.324 23.3362C17.303 16.3317 24.3799 10.8723 32.6597 7.64853C40.9394 4.42471 50.0503 3.58121 58.84 5.2247C67.6298 6.86819 75.7037 10.9248 82.0408 16.8817C88.3778 22.8385 92.6934 30.428 94.4418 38.6904C96.1902 46.9528 95.2929 55.517 91.8633 63.2999C88.4337 71.0829 82.6259 77.7352 75.1743 82.4154C67.7227 87.0957 58.962 89.5938 50 89.5938C37.9868 89.5802 26.4698 85.0883 17.9752 77.1033C9.48061 69.1184 4.70197 58.2924 4.6875 47Z" fill="white"/>
<path d="M71.9686 42.6819C72.3826 42.2643 72.608 41.7119 72.5973 41.1411C72.5866 40.5704 72.3406 40.0258 71.9112 39.6221C71.4818 39.2185 70.9024 38.9873 70.2952 38.9772C69.6881 38.9671 69.1004 39.179 68.6561 39.5682L49.9999 57.105L31.3436 39.5682C31.1291 39.3517 30.8703 39.1781 30.5828 39.0577C30.2953 38.9373 29.9849 38.8725 29.6702 38.8673C29.3556 38.8621 29.043 38.9165 28.7511 39.0273C28.4593 39.1381 28.1942 39.303 27.9716 39.5122C27.7491 39.7214 27.5736 39.9706 27.4557 40.245C27.3379 40.5193 27.28 40.8131 27.2855 41.1089C27.2911 41.4047 27.36 41.6965 27.4881 41.9667C27.6162 42.237 27.8008 42.4802 28.0311 42.6819L48.3436 61.7757C48.7831 62.1882 49.3788 62.42 49.9999 62.42C50.621 62.42 51.2167 62.1882 51.6561 61.7757L71.9686 42.6819Z" fill="white"/>
</g>
<defs>
<clipPath id="clip0_126_55">
<rect width="94" height="100" fill="white" transform="translate(100) rotate(90)"/>
</clipPath>
</defs>
</svg>
