<svg width="68" height="68" viewBox="0 0 68 68" fill="none" xmlns="http://www.w3.org/2000/svg">
<path d="M0.531445 58.5036C7.91582 59.1676 14.5697 57.3083 20.626 52.7661C14.2908 52.2083 10.0541 49.0473 7.69004 43.1239C9.76192 43.3762 11.701 43.4426 13.7596 42.8848C6.93301 40.7598 3.29395 36.2973 2.80254 29.0989C4.84785 30.0552 6.77363 30.7458 9.04473 30.7723C4.99395 27.7309 2.92207 23.7864 3.00176 18.8192C3.0416 16.5348 3.65254 14.3833 4.86113 12.3512C12.365 21.1302 21.7815 25.9911 33.376 26.8012C33.3096 26.2966 33.2697 25.8981 33.2166 25.4864C32.2604 18.1286 37.0416 11.4348 44.3463 10.0403C48.9283 9.16375 52.9791 10.3723 56.4057 13.5333C56.9369 14.0114 57.3885 14.1177 58.0526 13.945C60.7221 13.2677 63.2588 12.2848 65.7158 10.9567C64.7729 14.0645 62.8338 16.402 60.2041 18.3677C60.8018 18.2614 61.4127 18.1817 62.0104 18.0622C62.6346 17.9294 63.2588 17.7833 63.883 17.6106C64.4807 17.4512 65.0651 17.2653 65.6494 17.0661C66.2471 16.8669 66.8447 16.6411 67.5487 16.5216C67.2033 16.9997 66.8713 17.5044 66.4994 17.9692C64.9588 19.9216 63.1791 21.6348 61.2268 23.1622C61.0276 23.3216 60.8549 23.6669 60.8682 23.9059C60.9744 28.6208 60.3104 33.2161 58.783 37.6786C55.7815 46.4708 50.5486 53.5895 42.6994 58.6762C38.8213 61.1864 34.5846 62.8333 30.0557 63.7895C25.5666 64.7325 21.051 64.9051 16.5221 64.3739C11.9799 63.8426 7.66348 62.5012 3.59941 60.4028C2.52363 59.8583 1.4877 59.2473 0.438477 58.663C0.47832 58.6098 0.504883 58.5567 0.531445 58.5036Z" fill="black"/>
</svg>
