<svg width="68" height="68" viewBox="0 0 68 68" fill="none" xmlns="http://www.w3.org/2000/svg">
<path d="M42.6987 5.66699H25.302C9.43533 5.66699 5.66699 9.43533 5.66699 25.302V42.6987C5.66699 58.5653 9.43533 62.3337 25.302 62.3337H42.6987C58.5653 62.3337 62.3337 58.5653 62.3337 42.6987V25.302C62.3337 9.43533 58.5653 5.66699 42.6987 5.66699ZM51.4253 46.0987H47.2887C45.7303 46.0987 45.2487 44.8237 42.5003 42.0187C40.007 39.667 38.9303 39.327 38.3353 39.327C37.5137 39.327 37.2587 39.5537 37.2587 40.7437V44.4553C37.2587 45.447 36.947 46.0703 34.312 46.0703C29.9487 46.0703 25.1037 43.407 21.7037 38.5053C16.5753 31.3087 15.187 25.8687 15.187 24.792C15.187 24.197 15.3853 23.6303 16.5753 23.6303H20.7403C21.7887 23.6303 22.1853 24.0837 22.582 25.217C24.622 31.167 28.022 36.267 29.4103 36.267C29.9487 36.267 30.1753 36.012 30.1753 34.7087V28.617C30.0337 25.8403 28.532 25.5853 28.532 24.5937C28.532 24.0837 28.9287 23.6303 29.5803 23.6303H36.0687C36.947 23.6303 37.2587 24.0837 37.2587 25.1603V33.3487C37.2587 34.227 37.627 34.5387 37.9103 34.5387C38.4203 34.5387 38.8737 34.227 39.8087 33.2637C42.7837 29.9487 44.9087 24.8203 44.9087 24.8203C45.192 24.2253 45.6453 23.6587 46.7503 23.6587H50.802C52.0487 23.6587 52.332 24.3103 52.0487 25.1887C51.5387 27.597 46.4953 34.7087 46.552 34.7087C46.0987 35.417 45.9287 35.7287 46.552 36.5503C46.977 37.1453 48.422 38.392 49.3853 39.497C51.142 41.5087 52.502 43.1803 52.8703 44.342C53.182 45.5037 52.6153 46.0987 51.4253 46.0987Z" fill="black"/>
</svg>
