<svg width="68" height="68" viewBox="0 0 68 68" fill="none" xmlns="http://www.w3.org/2000/svg">
<path d="M66.56 17.3271C65.7525 14.4604 63.517 12.2122 60.6377 11.4174C55.3358 10.0001 34.022 10.0001 34.022 10.0001C34.022 10.0001 12.7487 9.96607 7.39153 11.4174C4.52703 12.2143 2.28091 14.4604 1.48191 17.3271C0.476784 22.7607 -0.0225909 28.2602 0.000784108 33.7852C-0.00984089 39.2741 0.487409 44.7651 1.48191 50.1647C2.28091 53.0313 4.52703 55.2796 7.39153 56.0871C12.6934 57.5044 34.022 57.5044 34.022 57.5044C34.022 57.5044 55.2827 57.5044 60.6377 56.0871C63.517 55.2796 65.7525 53.0335 66.56 50.1647C67.5354 44.7651 68.0114 39.2741 67.9774 33.7852C68.0114 28.2602 67.546 22.7607 66.56 17.3271ZM27.2135 43.9576V23.5682L44.9552 33.7852L27.2135 43.9576Z" fill="black"/>
</svg>
